# Blender 5.1.1
# www.blender.org
mtllib spaceship.mtl
o Cube
v 0.393750 0.129268 0.211796
v 0.363433 -0.083996 0.236534
v -0.393750 0.129268 0.211796
v -0.363433 -0.083996 0.236534
v 0.174755 0.267235 -0.174755
v 0.333083 -0.051532 -0.338199
v -0.174755 0.267235 -0.174755
v -0.333083 -0.051532 -0.338199
v 0.175000 -0.175000 -0.175000
v -0.175000 -0.175000 -0.175000
v 0.175000 -0.175000 0.175000
v 0.174755 0.267235 0.174755
v -0.174755 0.267235 0.174755
v -0.175000 -0.175000 0.175000
v -0.393750 0.129268 -0.279800
v 0.393750 0.129268 -0.279800
v -0.488740 -0.065430 -0.014877
v -0.533750 0.199268 -0.139800
v -0.953750 0.431585 0.211796
v -0.932106 -0.184633 0.209601
v 0.533750 0.199268 -0.139800
v 0.488740 -0.065430 -0.014877
v 0.932106 -0.184633 0.209601
v 0.953750 0.431585 0.211796
v -0.195873 -0.025848 -0.986838
v -0.283886 -0.069854 -0.444417
v -0.233100 0.123187 -0.492935
v -0.160832 0.087054 -0.938320
v 0.160832 0.087054 -0.938320
v 0.233100 0.123187 -0.492935
v 0.283886 -0.069854 -0.444417
v 0.195873 -0.025848 -0.986838
v -0.233006 0.200140 0.233006
v -0.233006 0.200140 -0.233006
v 0.233006 0.200140 0.233006
v 0.233006 0.200140 -0.233006
v 0.234500 -0.018149 0.350000
v -0.350000 0.000000 -0.350000
v -0.234500 -0.018149 0.350000
v 0.350000 0.000000 -0.350000
v 0.350000 0.000000 0.291410
v -0.350000 0.000000 0.291410
v -0.525000 0.000000 -0.175000
v -1.050000 -0.175000 0.264496
v 0.525000 0.000000 -0.175000
v 1.050000 -0.175000 0.264496
v -0.350000 0.000000 -0.381255
v -0.241490 0.000000 -1.050000
v 0.350000 0.000000 -0.381255
v 0.241490 0.000000 -1.050000
v -0.350000 0.066124 -0.350000
v -0.525000 0.136124 -0.175000
v -0.350000 0.066124 -0.381255
v 0.241490 0.038996 -1.050000
v 0.234500 0.147776 0.350000
v -0.234500 0.147776 0.350000
v 0.350000 0.066124 -0.350000
v 0.350000 0.066124 0.291410
v -0.350000 0.066124 0.291410
v -1.050000 0.393869 0.264496
v 0.525000 0.136124 -0.175000
v 1.050000 0.393869 0.264496
v -0.241490 0.038996 -1.050000
v 0.350000 0.066124 -0.381255
v 0.228350 0.184748 -0.350000
v -0.231399 0.184748 -0.350000
v -0.000000 -0.175000 -0.175000
v 0.000000 0.200140 0.233006
v -0.000000 0.243888 -0.233006
v 0.000000 -0.175000 0.175000
v -0.000000 -0.132248 -0.350000
v -0.000000 -0.069854 -0.444417
v -0.000000 -0.065113 -0.986838
v -0.000000 0.166935 -0.492935
v -0.000000 0.130801 -0.938320
v 0.000000 0.267235 0.174755
v -0.000000 0.267235 -0.174755
v -0.000000 -0.039265 -1.050000
v 0.000000 -0.018149 0.350000
v -0.000000 0.108183 -1.050000
v 0.000000 0.147776 0.350000
v -0.001525 0.228496 -0.350000
v 0.234500 0.064813 0.350000
v -0.234500 0.064813 0.350000
v 0.350000 0.033062 -0.350000
v 0.350000 0.033062 0.291410
v -0.350000 0.033062 0.291410
v -1.050000 -0.153066 0.264496
v 0.525000 0.033062 -0.175000
v 1.050000 -0.153066 0.264496
v -0.241490 0.019498 -1.050000
v 0.350000 0.033062 -0.381255
v -0.350000 0.033062 -0.350000
v -0.525000 0.033062 -0.175000
v -0.350000 0.033062 -0.381255
v 0.241490 0.019498 -1.050000
v 0.000000 0.064813 0.350000
v -0.000000 0.034459 -1.050000
vn -0.0000 1.0000 -0.0000
vn 0.4679 0.8837 -0.0104
vn -0.0000 -1.0000 -0.0000
vn -0.0000 0.9127 0.4085
vn 0.5659 0.3768 -0.7333
vn 0.1539 -0.9134 -0.3770
vn 0.5157 -0.8555 -0.0470
vn 0.5238 0.6805 0.5124
vn -0.2426 -0.6937 0.6782
vn -0.4034 0.9150 -0.0000
vn -0.5157 -0.8555 -0.0470
vn 0.3664 0.9205 -0.1357
vn 0.4034 0.9150 -0.0000
vn -0.5129 0.3058 -0.8021
vn -0.5184 -0.7730 -0.3656
vn 0.1048 -0.9866 -0.1251
vn 0.3281 0.6840 0.6516
vn 0.5129 0.3058 -0.8021
vn -0.1210 -0.6954 0.7083
vn -0.4679 0.8837 -0.0104
vn -0.1048 -0.9866 -0.1251
vn -0.4660 0.8758 -0.1253
vn 0.6448 -0.7528 -0.1320
vn -0.0815 -0.9954 -0.0513
vn 0.2158 0.9717 -0.0963
vn 0.2646 0.9428 -0.2028
vn 0.1304 -0.9612 -0.2431
vn 0.7936 0.3003 -0.5291
vn 0.4270 0.8356 -0.3457
vn -0.8456 -0.4773 -0.2390
vn -0.7551 0.6556 -0.0000
vn -0.0000 0.6556 0.7551
vn 0.0866 0.8075 -0.5835
vn 0.7551 0.6556 -0.0000
vn -1.0000 -0.0000 -0.0000
vn 0.8456 -0.4773 -0.2390
vn 0.1674 -0.9322 -0.3210
vn 0.9871 -0.0000 -0.1602
vn -0.6448 -0.7528 -0.1320
vn 0.0384 -0.0000 0.9993
vn 0.0798 -0.8631 -0.4988
vn 0.1210 -0.6954 0.7083
vn -0.7071 -0.0000 -0.7071
vn -0.0798 -0.8631 -0.4988
vn -0.4524 -0.0000 0.8918
vn 0.2426 -0.6937 0.6782
vn 0.5184 -0.7730 -0.3656
vn -0.0000 -0.7447 0.6674
vn -0.5238 0.6805 0.5124
vn -0.5659 0.3768 -0.7333
vn -0.3281 0.6840 0.6516
vn 0.4660 0.8758 -0.1253
vn -0.7936 0.3003 -0.5291
vn 1.0000 -0.0000 -0.0000
vn -0.0000 -0.0000 -1.0000
vn -0.9871 -0.0000 -0.1602
vn 0.2592 0.9609 0.0973
vn 0.4524 -0.0000 0.8918
vn 0.7071 -0.0000 -0.7071
vn -0.0000 -0.0000 1.0000
vn -0.1710 0.9049 -0.3896
vn -0.1842 0.9745 -0.1283
vn -0.3692 0.9207 -0.1262
vn -0.4353 0.8287 -0.3517
vn 0.1841 0.9739 -0.1330
vn 0.1713 0.9062 -0.3865
vn -0.1674 -0.9322 -0.3210
vn -0.0866 0.8075 -0.5835
vn -0.1304 -0.9612 -0.2431
vn -0.2646 0.9428 -0.2028
vn -0.2158 0.9717 -0.0963
vn 0.0815 -0.9954 -0.0513
vn -0.1539 -0.9134 -0.3770
vn -0.6419 -0.0000 -0.7668
vn -0.0384 -0.0000 0.9993
vn 0.6419 -0.0000 -0.7668
vn 0.4247 -0.9051 0.0235
vn -0.4247 -0.9051 0.0235
vn -0.2592 0.9609 0.0973
vn -0.9363 -0.0000 0.3513
vn 0.9363 -0.0000 0.3513
vt 0.656250 0.625000
vt 0.843750 0.625000
vt 0.843750 0.718750
vt 0.656250 0.718750
vt 0.594463 0.780537
vt 0.594463 1.000000
vt 0.125000 0.625000
vt 0.375000 0.625000
vt 0.375000 0.750000
vt 0.125000 0.750000
vt 0.562500 0.625000
vt 0.625000 0.625000
vt 0.625000 0.750000
vt 0.562500 0.750000
vt 0.547231 0.250000
vt 0.594463 0.250000
vt 0.405537 0.125000
vt 0.405537 0.250000
vt 0.375000 0.250000
vt 0.375000 0.125000
vt 0.405537 0.469463
vt 0.375000 0.500000
vt 0.547231 0.469463
vt 0.594463 0.469463
vt 0.625000 0.500000
vt 0.562500 0.500000
vt 0.500000 0.780537
vt 0.405537 0.780537
vt 0.500000 0.750000
vt 0.625000 1.000000
vt 0.405537 1.000000
vt 0.375000 1.000000
vt 0.594463 0.206554
vt 0.625000 0.250000
vt 0.547231 0.780537
vt 0.547231 1.000000
vt 0.500000 1.000000
vt 0.547231 0.780537
vt 0.500000 0.469463
vt 0.547231 0.000000
vt 0.594463 0.000000
vt 0.555709 0.038754
vt 0.527855 0.038754
vt 0.500000 0.250000
vt 0.444291 0.211246
vt 0.500000 0.211246
vt 0.405537 0.125000
vt 0.405537 0.000000
vt 0.444291 0.038754
vt 0.444291 0.125000
vt 0.594463 0.125000
vt 0.555709 0.211246
vt 0.555709 0.125000
vt 0.527855 0.125000
vt 0.527855 0.211246
vt 0.500000 0.000000
vt 0.875000 0.750000
vt 0.843750 0.531250
vt 0.875000 0.500000
vt 0.875000 0.625000
vt 0.656250 0.531250
vt 0.523616 0.000000
vt 0.523616 1.000000
vt 0.500000 0.125000
vt 0.523616 0.250000
vt 0.513927 0.211246
vt 0.500000 0.038754
vt 0.523616 0.469463
vt 0.523616 0.469463
vt 0.523616 1.000000
vt 0.523616 0.780537
vt 0.531250 0.750000
vt 0.500000 0.500000
vt 0.500000 0.625000
vt 0.513927 0.125000
vt 0.513927 0.038754
vt 0.531250 0.500000
vt 0.531250 0.625000
vt 0.594463 0.124456
vt 0.594463 0.042357
vt 0.625000 0.125000
vt 0.625000 0.000000
vt 0.375000 0.000000
vt 0.125000 0.500000
vt 0.523616 0.780537
s 0
usemtl Material
f 76/1/1 77/2/1 7/3/1 13/4/1
f 3/5/2 15/6/2 18/6/2 19/5/2
f 67/7/3 70/8/3 14/9/3 10/10/3
f 81/11/4 68/12/4 33/13/4 56/14/4
f 57/15/5 16/16/5 21/16/5 61/15/5
f 71/17/6 6/18/6 9/19/6 67/20/6
f 6/18/7 2/21/7 11/22/7 9/19/7
f 58/23/8 1/24/8 35/25/8 55/26/8
f 42/27/9 4/28/9 14/9/9 39/29/9
f 15/6/10 3/5/10 33/13/10 34/30/10
f 4/28/11 8/31/11 10/32/11 14/9/11
f 16/16/12 65/33/12 36/34/12
f 1/24/13 16/16/13 36/34/13 35/25/13
f 60/35/14 19/5/14 18/6/14 52/36/14
f 38/37/15 8/31/15 17/31/15 43/37/15
f 8/31/16 4/28/16 20/28/16 17/31/16
f 59/38/17 3/5/17 19/5/17 60/35/17
f 61/15/18 21/16/18 24/24/18 62/23/18
f 41/39/19 2/21/19 23/21/19 46/39/19
f 16/16/20 1/24/20 24/24/20 21/16/20
f 2/21/21 6/18/21 22/18/21 23/21/21
f 53/40/22 27/41/22 28/42/22 63/43/22
f 49/44/23 31/18/23 32/45/23 50/46/23
f 72/47/24 26/48/24 25/49/24 73/50/24
f 74/51/25 30/16/25 29/52/25 75/53/25
f 80/54/26 75/53/26 29/52/26 54/55/26
f 72/47/27 31/18/27 6/18/27 71/17/27
f 64/15/28 30/16/28 16/16/28 57/15/28
f 30/16/29 65/33/29 16/16/29
f 47/56/30 26/48/30 8/31/30 38/37/30
f 13/4/31 7/3/31 34/57/31 33/13/31
f 76/1/32 13/4/32 33/13/32 68/12/32
f 77/2/33 5/58/33 36/59/33 69/60/33
f 5/58/34 12/61/34 35/25/34 36/59/34
f 95/62/35 47/56/35 38/37/35 93/63/35
f 31/18/36 49/44/36 40/44/36 6/18/36
f 73/50/37 78/64/37 50/46/37 32/45/37
f 92/65/38 49/44/38 50/46/38 96/66/38
f 26/48/39 47/56/39 48/67/39 25/49/39
f 86/68/40 41/39/40 46/39/40 90/69/40
f 22/18/41 45/44/41 46/39/41 23/21/41
f 4/28/42 42/27/42 44/27/42 20/28/42
f 93/63/43 38/37/43 43/37/43 94/70/43
f 20/28/44 44/27/44 43/37/44 17/31/44
f 87/71/45 42/27/45 39/29/45 84/72/45
f 2/21/46 41/39/46 37/73/46 11/22/46
f 6/18/47 40/44/47 45/44/47 22/18/47
f 70/8/48 79/74/48 39/29/48 14/9/48
f 3/5/49 59/38/49 56/14/49 33/13/49
f 15/6/50 51/36/50 52/36/50 18/6/50
f 1/24/51 58/23/51 62/23/51 24/24/51
f 30/16/52 64/15/52 54/55/52 29/52/52
f 27/41/53 53/40/53 51/36/53 15/6/53
f 92/65/54 64/15/54 57/15/54 85/65/54
f 98/75/55 80/54/55 54/55/55 96/66/55
f 95/62/56 53/40/56 63/43/56 91/76/56
f 90/69/57 89/65/57 86/68/57
f 86/68/58 58/23/58 55/26/58 83/77/58
f 85/65/59 57/15/59 61/15/59 89/65/59
f 97/78/60 81/11/60 56/14/60 84/72/60
f 82/79/61 74/51/61 27/41/61 66/80/61
f 69/81/62 82/79/62 66/80/62 34/82/62
f 34/82/63 66/80/63 15/41/63
f 66/80/64 27/41/64 15/41/64
f 36/34/65 65/33/65 82/79/65 69/81/65
f 65/33/66 30/16/66 74/51/66 82/79/66
f 83/77/60 55/26/60 81/11/60 97/78/60
f 91/76/55 63/43/55 80/54/55 98/75/55
f 11/22/48 37/73/48 79/74/48 70/8/48
f 25/49/67 48/67/67 78/64/67 73/50/67
f 7/3/68 77/2/68 69/60/68 34/57/68
f 12/61/32 76/1/32 68/12/32 35/25/32
f 26/48/69 72/47/69 71/17/69 8/48/69
f 63/43/70 28/42/70 75/53/70 80/54/70
f 27/41/71 74/51/71 75/53/71 28/42/71
f 31/18/72 72/47/72 73/50/72 32/45/72
f 8/48/73 71/17/73 67/20/73 10/83/73
f 55/26/4 35/25/4 68/12/4 81/11/4
f 9/84/3 11/22/3 70/8/3 67/7/3
f 12/61/1 5/58/1 77/2/1 76/1/1
f 48/67/55 91/76/55 98/75/55 78/64/55
f 37/73/60 83/77/60 97/78/60 79/74/60
f 79/74/60 97/78/60 84/72/60 39/29/60
f 40/44/59 85/65/59 89/65/59 45/44/59
f 41/39/58 86/68/58 83/77/58 37/73/58
f 44/27/74 88/85/74 94/70/74 43/37/74
f 42/27/75 87/71/75 88/85/75 44/27/75
f 45/44/76 89/65/76 90/69/76 46/39/76
f 47/56/56 95/62/56 91/76/56 48/67/56
f 78/64/55 98/75/55 96/66/55 50/46/55
f 49/44/54 92/65/54 85/65/54 40/44/54
f 59/38/45 87/71/45 84/72/45 56/14/45
f 51/36/43 93/63/43 94/70/43 52/36/43
f 62/23/77 58/23/77 61/15/77
f 64/15/38 92/65/38 96/66/38 54/55/38
f 53/40/35 95/62/35 93/63/35 51/36/35
f 60/35/78 52/36/78 59/38/78
f 88/85/79 87/71/79 94/70/79
f 94/70/80 87/71/80 59/38/80 52/36/80
f 86/68/81 89/65/81 61/15/81 58/23/81
