# Unit cube with 24 vertices, per-face UVs and normals

v -0.5 -0.5  0.5
v  0.5 -0.5  0.5
v  0.5  0.5  0.5
v -0.5  0.5  0.5
v -0.5 -0.5 -0.5
v  0.5 -0.5 -0.5
v  0.5  0.5 -0.5
v -0.5  0.5 -0.5
v -0.5 -0.5 -0.5
v -0.5 -0.5  0.5
v -0.5  0.5  0.5
v -0.5  0.5 -0.5
v  0.5 -0.5 -0.5
v  0.5 -0.5  0.5
v  0.5  0.5  0.5
v  0.5  0.5 -0.5
v -0.5  0.5 -0.5
v -0.5  0.5  0.5
v  0.5  0.5  0.5
v  0.5  0.5 -0.5
v -0.5 -0.5 -0.5
v -0.5 -0.5  0.5
v  0.5 -0.5  0.5
v  0.5 -0.5 -0.5

vt 0.0 0.0
vt 1.0 0.0
vt 1.0 1.0
vt 0.0 1.0
vt 0.0 0.0
vt 1.0 0.0
vt 1.0 1.0
vt 0.0 1.0
vt 0.0 0.0
vt 1.0 0.0
vt 1.0 1.0
vt 0.0 1.0
vt 0.0 0.0
vt 1.0 0.0
vt 1.0 1.0
vt 0.0 1.0
vt 0.0 0.0
vt 1.0 0.0
vt 1.0 1.0
vt 0.0 1.0
vt 0.0 0.0
vt 1.0 0.0
vt 1.0 1.0
vt 0.0 1.0

vn  0.0  0.0  1.0
vn  0.0  0.0 -1.0
vn -1.0  0.0  0.0
vn  1.0  0.0  0.0
vn  0.0  1.0  0.0
vn  0.0 -1.0  0.0

f  1/1/1  2/2/1  3/3/1
f  1/1/1  3/3/1  4/4/1
f  5/5/2  7/7/2  6/6/2
f  5/5/2  8/8/2  7/7/2
f  9/9/3 10/10/3 11/11/3
f  9/9/3 11/11/3 12/12/3
f 13/13/4 15/15/4 14/14/4
f 13/13/4 16/16/4 15/15/4
f 17/17/5 18/18/5 19/19/5
f 17/17/5 19/19/5 20/20/5
f 21/21/6 23/23/6 22/22/6
f 21/21/6 24/24/6 23/23/6